<?xml version="1.0" standalone="no"?><!DOCTYPE svg PUBLIC "-//W3C//DTD SVG 1.1//EN" "http://www.w3.org/Graphics/SVG/1.1/DTD/svg11.dtd"><svg t="1758177755645" class="icon" viewBox="0 0 1024 1024" version="1.1" xmlns="http://www.w3.org/2000/svg" p-id="1540" xmlns:xlink="http://www.w3.org/1999/xlink" width="200" height="200"><path d="M776.86272 493.22496c-2.46272-134.26176-119.86432-241.36704-263.63392-242.03264-143.7696 0.6656-261.17632 107.776-263.63392 242.03264-1.536 83.72736 49.87904 166.64064 115.95776 218.88l147.67616 1.16224 147.67616-1.16224c66.07872-52.23936 117.49376-135.15264 115.95776-218.88z m-142.1568 177.68448c3.28704-2.37568 64.76288-57.5488 45.84448-187.4176-9.4464-64.77312-50.54976-103.72096-79.28832-132.096-20.8896-20.62848-35.24608-30.45376-26.16832-27.74528 36.5056 10.88512 122.01472 31.42656 145.28512 130.02752 34.77504 147.42528-79.616 213.69856-85.67296 217.23136zM593.99168 812.74368c0-3.49696-2.83136-6.32832-6.3232-6.32832l-148.94592 0.10752c-3.49696 0-6.3232 2.83136-6.3232 6.3232l0.06656 100.8128c0 3.49184 2.83648 6.3232 6.3232 6.3232l148.95104-0.1024c3.49696 0 6.3232-2.83648 6.3232-6.3232l-0.07168-100.8128zM513.2288 1023.95904l-1.59744 0.01536c0.53248 0 1.05984 0.0256 1.59744 0.0256 0.53248 0 1.05984-0.02048 1.59744-0.0256l-1.59744-0.01536z" fill="#6B758E" p-id="1541"></path><path d="M513.2288 7.46496C232.51968 7.46496 4.96128 235.02336 4.96128 515.73248c0 204.288 120.5504 380.40576 294.3744 461.16864l0.21504-91.78112s-5.91872-85.74976 52.44928-134.26688l-13.92128-6.81472c-77.60896-57.28768-129.5872-151.23968-137.36448-249.48736a322.41664 322.41664 0 0 1-0.96256-31.3856c3.05152-166.4512 142.8736-299.1872 313.46688-298.96192 170.60352-0.22528 310.4256 132.51072 313.472 298.96192a319.07328 319.07328 0 0 1-0.96256 31.3856c-7.77728 98.24768-59.76064 192.2048-137.35936 249.48736l-13.92128 6.81472c58.368 48.51712 52.44928 134.26688 52.44928 134.26688l0.20992 91.19232c-1.4592 0.91136-2.944 1.77152-4.41344 2.65728 176.20992-79.81056 298.78784-257.19808 298.78784-463.232 0.02048-280.71936-227.54816-508.27264-508.25216-508.27264z" fill="#6B758E" p-id="1542"></path></svg>