<?xml version="1.0" standalone="no"?><!DOCTYPE svg PUBLIC "-//W3C//DTD SVG 1.1//EN" "http://www.w3.org/Graphics/SVG/1.1/DTD/svg11.dtd"><svg t="1756959628852" class="icon" viewBox="0 0 1112 1024" version="1.1" xmlns="http://www.w3.org/2000/svg" p-id="4075" xmlns:xlink="http://www.w3.org/1999/xlink" width="217.1875" height="200"><path d="M796.293 239.375c22.544-5.664 44.522-12.122 66.047-19.259-30.475-30.587-88.25-79.187-126.655-99.579 14.387 30.814 49.733 85.645 60.608 118.838z m-436.72 498.916c63.214-11.442 129.033-17.56 196.666-17.56 67.858 0 133.905 6.118 197.232 17.673 14.16-55.737 22.77-114.307 25.263-174.802H334.423c2.379 60.495 10.989 119.065 25.15 174.689z m196.666-407.04c-67.18 0-132.433-6.004-195.194-17.333-14.614 55.737-23.677 114.42-26.396 175.141h443.858c-2.832-60.721-11.781-119.404-26.395-175.254-62.988 11.442-128.581 17.446-195.873 17.446zM379.51 252.97c56.757 10.195 115.892 15.633 176.728 15.633 60.948 0 120.31-5.438 177.293-15.747-18.012-51.998-41.123-100.938-68.425-145.913-34.779-9.063-71.257-13.821-108.868-13.821-37.385 0-73.637 4.758-108.19 13.594-27.302 45.202-50.412 94.255-68.538 146.254z m527.917 525.877c44.408-61.628 73.07-135.264 79.98-215.245h-146.14c-2.379 65.027-11.215 128.014-25.83 188.056 31.495 7.704 62.195 16.88 91.99 27.19z m-93.349-478.184c15.068 60.156 24.357 123.256 27.076 188.396h146.367c-6.798-80.207-35.46-154.183-79.98-216.038-30.362 10.536-61.516 19.826-93.463 27.642zM314.937 812.947a928.797 928.797 0 0 0-64.8 18.918c29.682 29.682 86.325 77.715 123.71 97.88-13.821-30.247-48.6-84.398-58.91-116.798z m483.169 0.113c-10.31 32.287-45.088 86.211-58.683 116.232 37.045-20.052 93.349-67.972 122.917-97.54a957.44 957.44 0 0 0-64.234-18.692z m-62.648-13.708c-57.55-10.536-117.478-16.087-179.22-16.087-61.514 0-121.216 5.551-178.653 15.974 17.446 51.432 39.65 99.806 66.16 144.554 35.912 9.63 73.636 14.727 112.494 14.727 39.197 0 77.148-5.211 113.173-14.954 26.396-44.521 48.6-92.895 66.046-144.214zM205.05 273.022c-44.522 61.74-73.183 135.717-79.98 216.037h146.933c2.719-65.14 12.008-128.127 26.962-188.282-32.173-7.817-63.554-17.107-93.915-27.756z m-79.98 290.58c6.91 79.98 35.572 153.73 79.98 215.245a1042.48 1042.48 0 0 1 92.556-27.415c-14.614-60.042-23.45-122.916-25.83-187.943H125.07z m191.568-324.114c10.989-33.42 46.447-88.363 60.835-119.404-38.858 20.392-96.747 69.218-127.448 100.032a903.563 903.563 0 0 0 66.613 19.372z" fill="#11295b" p-id="4076" cursorshover="true"></path></svg>