<?xml version="1.0" standalone="no"?><!DOCTYPE svg PUBLIC "-//W3C//DTD SVG 1.1//EN" "http://www.w3.org/Graphics/SVG/1.1/DTD/svg11.dtd"><svg t="1760077265660" class="icon" viewBox="0 0 1024 1024" version="1.1" xmlns="http://www.w3.org/2000/svg" p-id="8340" xmlns:xlink="http://www.w3.org/1999/xlink" width="200" height="200"><path d="M0 0h1024v1024H0z" fill="#101729" opacity=".01" p-id="8341" cursorshover="true"></path><path d="M603.204267 630.715733h-241.834667a19.012267 19.012267 0 0 1-21.026133-14.779733 31.095467 31.095467 0 0 1-0.375467-5.870933v-208.213334a18.261333 18.261333 0 0 1 20.48-20.206933h242.653867V190.020267a18.056533 18.056533 0 0 1 10.922666-17.92 17.7152 17.7152 0 0 1 20.855467 4.676266c3.413333 3.413333 7.168 6.826667 10.6496 10.478934l132.676267 132.4032q85.333333 84.957867 170.3936 170.052266a18.056533 18.056533 0 0 1 0.170666 28.637867q-121.890133 121.7536-243.848533 243.4048-34.7136 34.577067-69.495467 69.051733a18.2272 18.2272 0 0 1-20.650666 5.495467 17.954133 17.954133 0 0 1-11.5712-19.012267zM457.216 174.216533v70.144H272.384A63.658667 63.658667 0 0 0 206.916267 309.930667c0 130.6624 0.273067 261.290667-0.170667 391.953066a65.365333 65.365333 0 0 0 50.4832 64 89.736533 89.736533 0 0 0 16.418133 1.467734h183.466667v69.768533a13.346133 13.346133 0 0 1-2.7648 0.546133c-62.600533 0-125.3376 0.648533-187.938133-0.273066a134.2464 134.2464 0 0 1-127.146667-107.52 135.953067 135.953067 0 0 1-2.491733-25.9072c-0.170667-132.027733-0.443733-264.157867 0-396.1856a130.8672 130.8672 0 0 1 75.4688-120.456534 114.449067 114.449067 0 0 1 54.613333-13.2096c62.1568-0.170667 124.2112 0 186.368 0 1.2288 0.034133 2.321067 0.1024 3.9936 0.1024z m0 0" p-id="8342" cursorshover="true" fill="#101729"></path></svg>